# xmcd
#
# Track frame offsets:
#	150
#	17466
#	34113
#	51832
#	68519
#	89402
#	106538
#	122744
#	140683
#	159019
#	176761
#	196955
#	216050
#
# Disc length: 3100 seconds
#
# Revision: 7
# Processed by: cddbd v1.5.2PL0 Copyright (c) Steve Scherf et al.
# Submitted via: EasyCDDAExtractor 15.3.0.1
#
DISCID=a30c1a0d
DTITLE=Celine Dion - Loved Me Back To Life
DYEAR=2013
DGENRE=Pop
TTITLE0=Loved Me Back To Life
TTITLE1=Somebody Loves Somebody
TTITLE2=Incredible (Duet With Ne-Yo)
TTITLE3=Water And A Flame
TTITLE4=Breakaway
TTITLE5=Save Your Soul
TTITLE6=Didn't Know Love
TTITLE7=Thank You
TTITLE8=Overjoyed (Duet With Stevie Wonder)
TTITLE9=Thankful
TTITLE10=At Seventeen
TTITLE11=Always Be Your Girl
TTITLE12=Unfinished Songs
EXTD=YEAR: 2013
EXTT0=
EXTT1=
EXTT2=
EXTT3=
EXTT4=
EXTT5=
EXTT6=
EXTT7=
EXTT8=
EXTT9=
EXTT10=
EXTT11=
EXTT12=
PLAYORDER=
